# This file uses centimeters as units for non-parametric coordinates.

mtllib pointer.mtl
g default
v 0.019011 5.969582 -1.643824
v 0.028517 0.979087 -2.846926
v -2.994297 -0.038023 -2.465736
v -2.994297 -0.038023 -0.821912
v 0.028517 0.979087 -0.821912
v 3.022814 -0.028517 -0.821912
v 3.022814 -0.028517 -2.465736
v 0.034903 -2.373330 -3.833297
v 0.038023 -4.011407 -2.644002
v 5.048542 -4.073562 -3.020024
v 6.026616 -6.026616 -1.643988
v -6.007605 -6.045628 -1.645894
v -5.028169 -4.092935 -3.020497
v 5.512031 -4.999074 -0.140803
v 6.026616 -6.026616 -0.821912
v 0.036395 -3.157015 -0.140715
v 0.038023 -4.011407 -0.822427
v -6.007605 -6.045628 -0.821806
v -5.492104 -5.017879 -0.140608
vt 1.000000 0.000000
vt 1.000000 0.000000
vt 0.701328 0.399809
vt 0.701328 0.399809
vt 0.162518 -0.000000
vt 0.668459 0.167086
vt 0.445743 0.279328
vt 0.499907 0.669435
vt 0.500000 0.000000
vt 0.000000 0.000000
vt 0.453822 0.731125
vt -0.000000 -0.000000
vt 0.085537 0.000000
vt 0.393680 0.305566
vt 0.500000 0.000000
vt 0.668459 0.167086
vt 0.402656 0.799617
vt 0.336919 0.334172
vt 0.402656 0.799617
vt 0.336919 0.334172
vn 0.222719 0.253529 -0.941339
vn -0.000515 0.251265 -0.967918
vn -0.001292 0.234362 -0.972149
vn -0.221268 0.252830 -0.941869
vn -0.000289 0.162506 0.986708
vn 0.054637 0.162365 0.985217
vn -0.000517 0.162505 0.986708
vn -0.054564 0.162163 0.985254
vn 0.894144 0.447780 0.000000
vn 0.894144 0.447780 0.000000
vn 0.894144 0.447780 0.000000
vn -0.893861 0.448345 0.000000
vn -0.893861 0.448345 0.000000
vn -0.893861 0.448345 0.000000
vn 0.894144 0.447780 0.000000
vn 0.894144 0.447780 0.000000
vn 0.001244 -0.593493 -0.804838
vn 0.001069 -0.593493 -0.804839
vn 0.069195 -0.592097 -0.802890
vn 0.069195 -0.592097 -0.802890
vn -0.067609 -0.592109 -0.803017
vn -0.067609 -0.592109 -0.803017
vn -0.000319 0.264530 -0.964377
vn -0.225824 0.257294 -0.939576
vn 0.227309 0.258011 -0.939021
vn -0.893861 0.448345 0.000000
vn -0.893861 0.448345 0.000000
vn -0.205388 -0.610350 0.765042
vn -0.205388 -0.610350 0.765042
vn 0.001265 -0.623552 0.781781
vn 0.000872 -0.623553 0.781781
vn 0.205390 -0.610169 0.765186
vn 0.205390 -0.610169 0.765186
vn -0.054564 0.162163 0.985254
vn -0.000210 0.162506 0.986708
vn 0.054637 0.162365 0.985217
vn -0.318934 -0.947777 0.000000
vn -0.318934 -0.947777 0.000000
vn -0.318934 -0.947777 0.000000
vn -0.318934 -0.947777 0.000000
vn 0.318909 -0.947785 0.000000
vn 0.318909 -0.947785 0.000000
vn 0.318909 -0.947785 0.000000
vn 0.318909 -0.947785 0.000000
vn 0.894144 0.447781 0.000000
vn 0.894144 0.447781 0.000000
vn -0.893861 0.448344 0.000000
vn -0.893861 0.448344 0.000000
s 1
g polySurface1
usemtl initialShadingGroup
f 7/4/1 2/6/2 1/1/3
f 2/6/2 3/9/4 1/1/3
s 2
f 5/16/5 6/3/6 1/2/7
f 4/15/8 5/16/5 1/2/7
s 3
f 1/1/9 6/3/10 7/4/11
s 4
f 3/9/12 4/15/13 1/1/14
s 3
f 7/4/11 6/3/10 14/11/15 10/8/16
s 5
f 8/7/17 9/20/18 12/10/19 13/5/20
f 9/20/18 8/7/17 10/8/21 11/19/22
s 1
f 8/7/23 13/5/24 3/9/4 2/6/2
f 8/7/23 2/6/2 7/4/1 10/8/25
s 4
f 13/5/26 19/13/27 4/15/13 3/9/12
s 6
f 15/17/28 14/11/29 16/14/30 17/18/31
f 17/18/31 16/14/30 19/13/32 18/12/33
s 2
f 19/13/34 16/14/35 5/16/5 4/15/8
f 16/14/35 14/11/36 6/3/6 5/16/5
s off
f 15/17/37 17/18/38 9/20/39 11/19/40
f 17/18/41 18/12/42 12/10/43 9/20/44
s 3
f 10/8/16 14/11/15 15/17/45 11/19/46
s 4
f 18/12/47 19/13/27 13/5/26 12/10/48
